<?xml version="1.0" encoding="UTF-8" standalone="no"?>
<!-- Created with Inkscape (http://www.inkscape.org/) -->

<svg
   xmlns:dc="http://purl.org/dc/elements/1.1/"
   xmlns:cc="http://creativecommons.org/ns#"
   xmlns:rdf="http://www.w3.org/1999/02/22-rdf-syntax-ns#"
   xmlns:svg="http://www.w3.org/2000/svg"
   xmlns="http://www.w3.org/2000/svg"
   xmlns:sodipodi="http://sodipodi.sourceforge.net/DTD/sodipodi-0.dtd"
   xmlns:inkscape="http://www.inkscape.org/namespaces/inkscape"
   width="51.83152mm"
   height="7.2207851mm"
   viewBox="0 0 51.83152 7.2207852"
   version="1.1"
   id="svg8"
   inkscape:version="0.92.4 (5da689c313, 2019-01-14)"
   sodipodi:docname="vintkeys.svg">
  <defs
     id="defs2" />
  <sodipodi:namedview
     id="base"
     pagecolor="#ffffff"
     bordercolor="#666666"
     borderopacity="1.0"
     inkscape:pageopacity="0.0"
     inkscape:pageshadow="2"
     inkscape:zoom="6.1035046"
     inkscape:cx="73.453335"
     inkscape:cy="13.645577"
     inkscape:document-units="mm"
     inkscape:current-layer="layer1"
     showgrid="false"
     inkscape:window-width="1366"
     inkscape:window-height="712"
     inkscape:window-x="0"
     inkscape:window-y="0"
     inkscape:window-maximized="1" />
  <metadata
     id="metadata5">
    <rdf:RDF>
      <cc:Work
         rdf:about="">
        <dc:format>image/svg+xml</dc:format>
        <dc:type
           rdf:resource="http://purl.org/dc/dcmitype/StillImage" />
        <dc:title></dc:title>
      </cc:Work>
    </rdf:RDF>
  </metadata>
  <g
     inkscape:label="Layer 1"
     inkscape:groupmode="layer"
     id="layer1"
     transform="translate(-52.434576,-134.21664)">
    <g
       aria-label="VInTKEYS"
       style="font-style:normal;font-variant:normal;font-weight:normal;font-stretch:normal;font-size:7.05555534px;line-height:1.25;font-family:BoomBox;-inkscape-font-specification:BoomBox;text-align:center;letter-spacing:0px;word-spacing:0px;text-anchor:middle;fill:#ffffff;fill-opacity:1;stroke:none;stroke-width:0.26458332"
       id="text817-1"
       transform="translate(1.1704341,-8.7565813)">
      <path
         d="M 59.002033,143.48622 H 57.4357 l -1.933222,4.12045 c -0.02822,0.0564 -0.07056,0.0847 -0.119945,0.0847 -0.04939,0 -0.09172,-0.0282 -0.119944,-0.0847 l -1.926167,-4.12045 h -1.559277 l 2.610555,5.588 c 0.1905,0.40217 0.529167,0.60678 1.001889,0.60678 0.472722,0 0.811389,-0.20461 1.001889,-0.60678 z"
         style="fill:#ffffff;stroke-width:0.26458332"
         id="path819-2"
         inkscape:connector-curvature="0" />
      <path
         d="m 59.459983,143.48622 v 6.10306 h 1.354667 v -6.10306 z"
         style="fill:#ffffff;stroke-width:0.26458332"
         id="path821-7"
         inkscape:connector-curvature="0" />
      <path
         d="m 67.974605,149.58928 v -6.10306 h -1.354667 v 4.17689 c -0.04939,0 -0.09172,-0.0282 -0.127,-0.0847 L 64.164605,144.093 c -0.268111,-0.40217 -0.578556,-0.60678 -0.938389,-0.60678 h -1.354667 v 6.10306 h 1.354667 v -4.17689 c 0.04233,0 0.08467,0.0282 0.119944,0.0776 l 2.335389,3.48545 c 0.275167,0.40922 0.592667,0.61383 0.938389,0.61383 z"
         style="fill:#ffffff;stroke-width:0.26458332"
         id="path823-0"
         inkscape:connector-curvature="0" />
      <path
         d="m 68.437625,143.48622 v 1.35467 h 6.152444 v -1.35467 z m 2.377722,2.032 v 4.07106 h 1.354667 v -4.07106 z"
         style="fill:#ffffff;stroke-width:0.26458332"
         id="path825-9"
         inkscape:connector-curvature="0" />
      <path
         d="m 81.603624,149.58928 -1.051278,-2.37772 c -0.225778,-0.51506 -0.458611,-0.87489 -0.740833,-1.07245 0.07761,-0.0494 0.08467,-0.0564 0.204611,-0.28222 l 1.248833,-2.37067 h -1.594556 l -1.150055,2.23661 c -0.04939,0.0917 -0.09172,0.13406 -0.134056,0.13406 h -1.834444 v -2.37067 h -1.354667 v 6.10306 h 1.361723 v -2.37772 h 2.307166 c 0.04939,0 0.09172,0.0494 0.134056,0.14111 l 1.016,2.23661 z"
         style="fill:#ffffff;stroke-width:0.26458332"
         id="path827-3"
         inkscape:connector-curvature="0" />
      <path
         d="m 88.175983,149.58928 v -1.35467 h -4.621388 c -0.09172,0 -0.134056,-0.0494 -0.134056,-0.14111 v -0.88194 h 4.755444 v -1.35467 h -4.755444 v -0.88194 c 0,-0.0917 0.04939,-0.13406 0.141111,-0.13406 h 4.614333 v -1.35467 h -4.755444 c -0.705556,0 -1.354667,0.58561 -1.354667,1.35467 v 3.39372 c 0,0.75495 0.649111,1.35467 1.361723,1.35467 z"
         style="fill:#ffffff;stroke-width:0.26458332"
         id="path829-6"
         inkscape:connector-curvature="0" />
      <path
         d="m 95.103545,143.48622 h -1.368778 v 1.89795 c 0,0.29633 -0.564444,0.4445 -1.693333,0.4445 -1.128889,0 -1.693333,-0.14817 -1.693333,-0.4445 v -1.89795 h -1.361722 v 2.032 c 0,1.15006 0.938389,1.69334 3.062111,1.69334 2.039055,0 3.055055,-0.56445 3.055055,-1.69334 z m -3.739444,3.02255 v 3.08051 h 1.354666 v -2.99381 z"
         style="fill:#ffffff;stroke-width:0.26458332"
         id="path831-0"
         inkscape:connector-curvature="0"
         sodipodi:nodetypes="ccsssccssscccccc" />
      <path
         d="m 102.58266,144.84089 v -1.35467 h -5.383393 c -0.705556,0 -1.354667,0.58561 -1.354667,1.35467 v 1.016 c 0,0.73378 0.620889,1.35467 1.354667,1.35467 h 3.259663 c 0.0917,0 0.13406,0.0494 0.13406,0.14111 v 0.74083 c 0,0.0917 -0.0423,0.14111 -0.13406,0.14111 H 95.8446 v 1.35467 h 4.74839 c 0.75494,0 1.35467,-0.62795 1.35467,-1.35467 v -1.02305 c 0,-0.73378 -0.62089,-1.35467 -1.35467,-1.35467 h -3.259668 c -0.09172,0 -0.134055,-0.0423 -0.134055,-0.13406 v -0.74788 c 0,-0.0917 0.04233,-0.13406 0.134055,-0.13406 z"
         style="fill:#ffffff;stroke-width:0.26458332"
         id="path833-6"
         inkscape:connector-curvature="0" />
    </g>
  </g>
</svg>
